<svg width="26" height="28" viewBox="0 0 26 28" fill="none" xmlns="http://www.w3.org/2000/svg">
<path d="M25.5955 11.0317H18.3827C18.4346 10.4177 18.4 9.8642 18.279 9.37124C18.1579 8.87828 17.9503 8.45451 17.6563 8.09993C17.3622 7.7367 16.9774 7.45995 16.5017 7.26968C16.0261 7.07942 15.4596 6.98429 14.8023 6.98429C13.5396 6.98429 12.411 7.29995 11.4165 7.93129C10.4219 8.55397 9.59598 9.44908 8.93871 10.6166C8.28143 11.7755 7.81442 13.1592 7.53767 14.7678C7.29552 16.3245 7.28687 17.6175 7.51172 18.6466C7.74523 19.6758 8.19927 20.4455 8.87384 20.9557C9.55707 21.466 10.4435 21.7211 11.5332 21.7211C12.2597 21.7211 12.9256 21.6346 13.531 21.4617C14.145 21.2887 14.6899 21.0422 15.1655 20.7222C15.6498 20.3936 16.0606 20.0044 16.3979 19.5547C16.7439 19.0963 17.0076 18.5904 17.1893 18.0369H24.4539C24.1771 19.1612 23.6842 20.3114 22.975 21.4876C22.2659 22.6551 21.3491 23.7319 20.2248 24.7178C19.1005 25.6951 17.7773 26.4864 16.2552 27.0918C14.7331 27.6972 13.0207 27.9998 11.1181 27.9998C8.62737 27.9998 6.47824 27.455 4.67073 26.3653C2.87187 25.2756 1.56597 23.6843 0.753018 21.5914C-0.0512807 19.4985 -0.211276 16.9472 0.273033 13.9376C0.757342 11.0317 1.71299 8.59721 3.13997 6.63403C4.56695 4.67085 6.30095 3.19197 8.34197 2.19741C10.383 1.20285 12.5537 0.705566 14.8542 0.705566C16.5925 0.705566 18.1492 0.934748 19.5243 1.39311C20.9081 1.85148 22.0713 2.52173 23.0139 3.40386C23.9653 4.27735 24.6658 5.35407 25.1155 6.63403C25.5652 7.91399 25.7252 9.37989 25.5955 11.0317Z" fill="#12153A"/>
</svg>
